<?xml version="1.0" standalone="no"?>
<!DOCTYPE svg PUBLIC "-//W3C//DTD SVG 20010904//EN"
 "http://www.w3.org/TR/2001/REC-SVG-20010904/DTD/svg10.dtd">
<svg version="1.0" xmlns="http://www.w3.org/2000/svg"
 width="700.000000pt" height="250.000000pt" viewBox="0 0 700.000000 250.000000"
 preserveAspectRatio="xMidYMid meet">

<g transform="translate(0.000000,250.000000) scale(0.100000,-0.100000)"
fill="#000000" stroke="none">
<path d="M3540 2333 c-188 -17 -268 -26 -345 -39 -541 -88 -1030 -291 -1497
-621 -62 -44 -120 -88 -128 -99 -8 -10 3 -5 25 12 73 56 268 180 408 258 535
301 1049 449 1682 485 l150 8 -130 0 c-71 0 -146 -2 -165 -4z"/>
<path d="M3300 2249 c-119 -13 -360 -51 -360 -56 0 -3 19 -2 43 1 378 62 837
58 1167 -9 232 -47 475 -127 633 -206 20 -11 37 -17 37 -14 0 8 -171 88 -258
121 -228 86 -464 140 -717 164 -127 12 -436 11 -545 -1z"/>
<path d="M2908 2183 c7 -3 16 -2 19 1 4 3 -2 6 -13 5 -11 0 -14 -3 -6 -6z"/>
<path d="M3326 2179 c-450 -32 -862 -153 -1294 -379 -173 -91 -159 -92 28 -2
503 241 965 353 1463 352 303 -1 659 -66 925 -171 256 -101 544 -291 689 -455
120 -136 118 -134 81 -79 -60 91 -254 274 -378 357 -349 234 -711 349 -1187
378 -95 5 -183 9 -195 9 -13 -1 -72 -5 -132 -10z"/>
<path d="M3548 2113 c17 -2 47 -2 65 0 17 2 3 4 -33 4 -36 0 -50 -2 -32 -4z"/>
<path d="M3695 2103 c258 -37 490 -106 684 -205 217 -111 375 -246 490 -419
75 -112 72 -109 62 -73 -50 174 -273 386 -547 519 -179 88 -481 171 -649 179
-38 2 -56 2 -40 -1z"/>
<path d="M3085 2059 c-188 -12 -434 -65 -622 -134 -112 -41 -406 -184 -443
-216 -14 -11 13 0 60 24 333 177 744 294 1110 316 109 6 117 8 60 12 -36 2
-110 1 -165 -2z"/>
<path d="M2490 1860 c-122 -35 -186 -59 -285 -105 -88 -41 -275 -143 -275
-151 0 -3 3 -3 8 -1 138 74 399 183 592 248 135 44 104 52 -40 9z"/>
<path d="M615 1238 c-88 -166 -195 -369 -238 -450 l-78 -148 104 0 103 0 31
70 32 70 208 -2 208 -3 35 -67 35 -68 99 0 c83 0 97 2 92 15 -8 22 -457 869
-465 877 -3 4 -78 -128 -166 -294z m221 -180 l55 -113 -107 -3 c-59 -1 -108
-1 -111 1 -4 5 97 227 104 227 2 0 28 -51 59 -112z"/>
<path d="M5955 1238 c-88 -166 -195 -369 -238 -450 l-78 -148 104 0 103 0 31
70 32 70 208 -2 208 -3 35 -67 35 -68 99 0 c88 0 97 2 92 17 -9 24 -457 866
-465 875 -3 4 -78 -128 -166 -294z m221 -180 l55 -113 -107 -3 c-59 -1 -108
-1 -110 1 -5 4 97 227 103 227 2 0 28 -51 59 -112z"/>
<path d="M2457 1299 c-97 -23 -197 -101 -240 -189 -32 -65 -32 -215 0 -280 50
-101 168 -182 283 -196 73 -8 169 16 237 61 48 32 103 91 103 111 0 5 -27 19
-61 31 l-61 22 -24 -29 c-14 -15 -45 -38 -70 -50 -154 -75 -333 72 -290 239
42 164 242 216 360 92 l27 -29 52 20 c72 27 74 32 43 73 -75 99 -234 153 -359
124z"/>
<path d="M3233 1097 c-62 -117 -142 -267 -178 -334 l-66 -123 76 0 75 0 25 50
25 50 158 0 159 0 23 -50 23 -50 75 0 c66 0 73 2 67 18 -9 23 -335 635 -343
644 -4 4 -58 -88 -119 -205z m157 -147 c22 -44 40 -82 40 -85 0 -3 -38 -5 -85
-5 l-85 0 42 85 c23 47 44 85 45 85 2 0 21 -36 43 -80z"/>
<path d="M1450 971 l0 -331 70 0 70 0 0 105 0 105 49 0 48 0 79 -105 79 -104
83 -1 83 0 -19 28 c-11 15 -47 63 -81 107 -34 43 -61 82 -61 85 1 3 18 17 40
32 105 73 115 257 18 344 -57 53 -82 58 -275 62 l-183 4 0 -331z m334 199 c60
-23 73 -133 21 -177 -23 -20 -37 -23 -121 -23 l-94 0 0 105 0 105 84 0 c47 0
96 -4 110 -10z"/>
<path d="M3890 970 l0 -330 238 0 c131 0 241 2 243 4 2 2 2 29 1 60 l-4 56
-169 0 -169 0 0 270 0 270 -70 0 -70 0 0 -330z"/>
<path d="M4570 970 l0 -330 70 0 70 0 0 135 0 135 155 0 155 0 0 60 0 60 -155
0 -155 0 0 75 0 75 180 0 180 0 0 60 0 60 -250 0 -250 0 0 -330z"/>
<path d="M5300 970 l0 -330 70 0 70 0 -2 328 -3 327 -67 3 -68 3 0 -331z"/>
<path d="M590 470 c0 -13 7 -20 20 -20 19 0 20 -7 20 -165 0 -158 1 -165 20
-165 19 0 20 7 20 165 0 158 1 165 20 165 13 0 20 7 20 20 0 18 -7 20 -60 20
-53 0 -60 -2 -60 -20z"/>
<path d="M740 305 c0 -178 1 -185 20 -185 18 0 20 7 20 86 l0 85 33 -3 32 -3
3 -82 c3 -75 5 -83 22 -83 18 0 20 7 20 83 0 47 -5 88 -11 94 -8 8 -8 17 0 31
6 11 11 41 11 67 0 65 -31 95 -100 95 l-50 0 0 -185z m99 131 c7 -8 11 -34 9
-58 -3 -40 -5 -43 -35 -46 l-33 -3 0 60 c0 58 1 61 24 61 13 0 29 -6 35 -14z"/>
<path d="M980 484 c0 -8 -49 -301 -56 -337 -5 -22 -2 -27 15 -27 13 0 21 8 23
23 2 18 10 23 41 25 32 3 37 0 37 -18 0 -20 25 -38 37 -26 5 5 -40 298 -53
349 -5 15 -44 26 -44 11z m49 -256 c1 -13 -7 -18 -30 -18 -24 0 -29 4 -26 18
3 9 8 40 12 67 13 101 18 105 32 25 6 -41 12 -83 12 -92z"/>
<path d="M1120 305 c0 -178 1 -185 20 -185 19 0 20 7 21 133 0 72 2 128 4 122
2 -5 18 -65 36 -132 26 -102 35 -123 50 -123 18 0 19 11 19 185 0 178 -1 185
-20 185 -19 0 -20 -7 -21 -122 l-1 -123 -31 123 c-29 111 -33 122 -54 122
l-23 0 0 -185z"/>
<path d="M1326 468 c-19 -26 -21 -80 -4 -111 6 -12 29 -45 50 -73 42 -56 51
-106 21 -123 -21 -11 -53 3 -53 24 0 8 -9 15 -20 15 -26 0 -25 -20 1 -54 27
-35 90 -37 113 -4 33 47 17 108 -55 199 -37 47 -45 81 -24 103 19 18 55 6 55
-19 0 -8 9 -15 20 -15 24 0 26 26 4 58 -11 16 -25 22 -54 22 -29 0 -43 -6 -54
-22z"/>
<path d="M1490 305 c0 -178 1 -185 20 -185 19 0 20 7 21 113 l1 112 19 -90
c28 -136 28 -135 47 -135 15 0 21 20 39 113 l21 112 1 -112 c1 -106 2 -113 21
-113 19 0 20 7 20 185 0 176 -1 185 -19 185 -23 0 -22 2 -56 -160 -14 -68 -27
-126 -29 -128 -2 -2 -16 62 -31 142 -26 139 -28 146 -51 146 l-24 0 0 -185z"/>
<path d="M1740 305 c0 -178 1 -185 20 -185 19 0 20 7 20 185 0 178 -1 185 -20
185 -19 0 -20 -7 -20 -185z"/>
<path d="M1846 468 c-19 -26 -21 -80 -4 -111 6 -12 29 -45 50 -73 42 -56 51
-106 21 -123 -21 -11 -53 3 -53 24 0 8 -9 15 -20 15 -26 0 -25 -20 1 -54 27
-35 90 -37 113 -4 31 43 20 89 -39 178 -60 89 -63 101 -39 124 18 18 54 5 54
-19 0 -8 9 -15 20 -15 24 0 26 26 4 58 -11 16 -25 22 -54 22 -29 0 -43 -6 -54
-22z"/>
<path d="M2026 468 c-19 -26 -21 -80 -4 -111 6 -12 29 -45 50 -73 42 -56 51
-106 21 -123 -21 -11 -53 3 -53 24 0 8 -9 15 -20 15 -26 0 -25 -20 1 -54 27
-35 90 -37 113 -4 31 43 20 89 -39 178 -60 89 -63 101 -39 124 18 18 54 5 54
-19 0 -8 9 -15 20 -15 24 0 26 26 4 58 -11 16 -25 22 -54 22 -29 0 -43 -6 -54
-22z"/>
<path d="M2190 305 c0 -178 1 -185 20 -185 19 0 20 7 20 185 0 178 -1 185 -20
185 -19 0 -20 -7 -20 -185z"/>
<path d="M2304 476 c-17 -13 -19 -30 -22 -164 -3 -141 -2 -152 17 -171 25 -25
78 -28 107 -7 17 13 19 28 19 171 0 143 -2 158 -19 171 -25 18 -77 18 -102 0z
m86 -171 c0 -118 -2 -135 -18 -144 -11 -6 -24 -6 -35 0 -15 9 -17 28 -17 144
0 116 2 135 17 144 11 6 24 6 35 0 16 -9 18 -26 18 -144z"/>
<path d="M2470 305 c0 -178 1 -185 20 -185 19 0 20 7 21 133 0 72 2 128 4 122
2 -5 18 -65 36 -132 26 -102 35 -123 50 -123 18 0 19 11 19 185 0 178 -1 185
-20 185 -19 0 -20 -7 -21 -122 l-1 -123 -31 123 c-28 113 -32 122 -53 122
l-24 0 0 -185z"/>
<path d="M2980 305 c0 -178 1 -185 20 -185 18 0 20 7 20 80 l0 80 30 0 c23 0
30 4 30 20 0 16 -7 20 -30 20 l-30 0 0 65 0 65 45 0 c38 0 45 3 45 20 0 18 -7
20 -65 20 l-65 0 0 -185z"/>
<path d="M3140 305 c0 -178 1 -185 20 -185 19 0 20 7 20 185 0 178 -1 185 -20
185 -19 0 -20 -7 -20 -185z"/>
<path d="M3230 305 c0 -178 1 -185 20 -185 19 0 20 7 21 133 0 72 2 128 4 122
2 -5 18 -65 36 -132 26 -102 35 -123 50 -123 18 0 19 11 19 185 0 178 -1 185
-20 185 -19 0 -20 -7 -21 -122 l-1 -123 -31 123 c-29 111 -33 122 -54 122
l-23 0 0 -185z"/>
<path d="M3470 484 c0 -8 -49 -301 -56 -337 -5 -22 -2 -27 15 -27 13 0 21 8
23 23 2 18 10 23 41 25 32 3 37 0 37 -18 0 -20 25 -38 37 -26 5 5 -40 298 -53
349 -5 15 -44 26 -44 11z m49 -256 c1 -13 -7 -18 -30 -18 -24 0 -29 4 -26 18
3 9 8 40 12 67 13 101 18 105 32 25 6 -41 12 -83 12 -92z"/>
<path d="M3610 305 c0 -178 1 -185 20 -185 19 0 20 7 21 133 0 72 2 128 4 122
2 -5 18 -65 36 -132 26 -102 35 -123 50 -123 18 0 19 11 19 185 0 178 -1 185
-20 185 -19 0 -20 -7 -21 -122 l-1 -123 -31 123 c-29 111 -33 122 -54 122
l-23 0 0 -185z"/>
<path d="M3820 470 c-18 -18 -20 -33 -20 -165 0 -132 2 -147 20 -165 26 -26
81 -26 103 -2 21 23 22 62 2 62 -8 0 -15 -4 -15 -9 0 -5 -7 -17 -16 -25 -12
-12 -20 -13 -35 -6 -17 10 -19 23 -19 145 0 122 2 135 19 145 15 7 23 6 35 -6
9 -8 16 -20 16 -25 0 -5 7 -9 15 -9 21 0 19 43 -3 63 -25 23 -78 21 -102 -3z"/>
<path d="M3980 305 l0 -185 60 0 c53 0 60 2 60 20 0 17 -7 20 -40 20 l-40 0 0
65 0 65 30 0 c23 0 30 4 30 20 0 16 -7 20 -30 20 l-30 0 0 60 0 60 40 0 c33 0
40 3 40 20 0 18 -7 20 -60 20 l-60 0 0 -185z"/>
<path d="M4140 305 c0 -178 1 -185 20 -185 19 0 20 7 21 113 l1 112 19 -90
c28 -136 28 -135 47 -135 14 0 21 20 38 108 l21 107 2 -107 c1 -101 2 -108 21
-108 19 0 20 7 20 185 0 176 -1 185 -19 185 -23 0 -22 2 -56 -160 -14 -68 -27
-126 -29 -128 -2 -2 -16 62 -31 142 -26 139 -28 146 -51 146 l-24 0 0 -185z"/>
<path d="M4390 305 l0 -185 60 0 c53 0 60 2 60 20 0 17 -7 20 -40 20 l-40 0 0
65 0 65 30 0 c23 0 30 4 30 20 0 16 -7 20 -30 20 l-30 0 0 60 0 60 40 0 c33 0
40 3 40 20 0 18 -7 20 -60 20 l-60 0 0 -185z"/>
<path d="M4550 305 c0 -178 1 -185 20 -185 19 0 20 7 21 133 0 72 2 128 4 122
2 -5 18 -65 36 -132 26 -102 35 -123 50 -123 18 0 19 11 19 185 0 178 -1 185
-20 185 -19 0 -20 -7 -21 -122 l-1 -123 -31 123 c-28 113 -32 122 -53 122
l-24 0 0 -185z"/>
<path d="M4730 470 c0 -13 7 -20 20 -20 19 0 20 -7 20 -165 0 -158 1 -165 20
-165 19 0 20 7 20 165 0 158 1 165 20 165 13 0 20 7 20 20 0 18 -7 20 -60 20
-53 0 -60 -2 -60 -20z"/>
<path d="M5220 470 c-18 -18 -20 -33 -20 -165 0 -132 2 -147 20 -165 26 -26
81 -26 103 -2 21 23 22 62 2 62 -8 0 -15 -7 -15 -15 0 -21 -31 -35 -52 -24
-16 9 -18 26 -18 144 0 116 2 135 17 144 21 11 53 -3 53 -24 0 -8 7 -15 15
-15 21 0 19 43 -3 63 -25 23 -78 21 -102 -3z"/>
<path d="M5400 470 c-18 -18 -20 -33 -20 -165 0 -132 2 -147 20 -165 24 -24
77 -27 106 -6 17 13 19 28 19 171 0 143 -2 158 -19 171 -29 21 -82 18 -106 -6z
m90 -165 c0 -118 -2 -135 -18 -144 -11 -6 -24 -6 -35 0 -15 9 -17 28 -17 144
0 116 2 135 17 144 11 6 24 6 35 0 16 -9 18 -26 18 -144z"/>
<path d="M5570 305 c0 -178 1 -185 20 -185 19 0 20 7 21 133 0 72 2 128 4 122
2 -5 18 -65 36 -132 26 -102 35 -123 50 -123 18 0 19 11 19 185 0 178 -1 185
-20 185 -19 0 -20 -7 -21 -122 l-1 -123 -31 123 c-29 111 -33 122 -54 122
l-23 0 0 -185z"/>
<path d="M5776 468 c-19 -26 -21 -80 -4 -111 6 -12 29 -45 50 -73 42 -56 51
-106 21 -123 -21 -11 -53 3 -53 24 0 8 -9 15 -20 15 -26 0 -25 -20 1 -54 27
-35 90 -37 113 -4 31 43 20 89 -39 178 -60 89 -63 101 -39 124 18 18 54 5 54
-19 0 -8 9 -15 20 -15 24 0 26 26 4 58 -11 16 -25 22 -54 22 -29 0 -43 -6 -54
-22z"/>
<path d="M5940 305 l0 -185 60 0 c53 0 60 2 60 20 0 17 -7 20 -40 20 l-40 0 0
65 0 65 30 0 c23 0 30 4 30 20 0 16 -7 20 -30 20 l-30 0 0 60 0 60 40 0 c33 0
40 3 40 20 0 18 -7 20 -60 20 l-60 0 0 -185z"/>
<path d="M6100 305 c0 -178 1 -185 20 -185 19 0 20 7 20 185 0 178 -1 185 -20
185 -19 0 -20 -7 -20 -185z"/>
<path d="M6190 305 l0 -185 55 0 c48 0 55 2 55 20 0 16 -7 20 -35 20 l-35 0 0
165 c0 158 -1 165 -20 165 -19 0 -20 -7 -20 -185z"/>
<path d="M2740 295 c0 -12 13 -15 60 -15 47 0 60 3 60 15 0 12 -13 15 -60 15
-47 0 -60 -3 -60 -15z"/>
<path d="M4960 295 c0 -12 13 -15 60 -15 47 0 60 3 60 15 0 12 -13 15 -60 15
-47 0 -60 -3 -60 -15z"/>
</g>
</svg>
